# AST/ASF file generated using VICON BodyLanguage
# -----------------------------------------------
:version 1.10
:name VICON
:units
  mass 1.0
  length 0.45
  angle deg
:documentation
   .ast/.asf automatically generated from VICON data using
   VICON BodyBuilder and BodyLanguage model FoxedUp or BRILLIANT.MOD
:root
   order TX TY TZ RX RY RZ
   axis XYZ
   position 0 0 0  
   orientation 0 0 0 
:bonedata
  begin
     id 1 
     name lhipjoint
     direction 0.612567 -0.751349 0.245431 
     length 2.42285 
     axis 0 0 0  XYZ
  end
  begin
     id 2 
     name lfemur
     direction 0.34202 -0.939693 0  
     length 7.11304  
     axis 0 0 20  XYZ
    dof rx ry rz
    limits (-160.0 20.0)
           (-70.0 70.0)
           (-60.0 70.0)
  end
  begin
     id 3 
     name ltibia
     direction 0.34202 -0.939693 0   
     length 7.84529   
     axis 0 0 20   XYZ
    dof rx
    limits (-10.0 170.0)
  end
  begin
     id 4 
     name lfoot
     direction 0.0779239 -0.214094 0.9737   
     length 1.97176   
     axis -90 7.62852e-016 20   XYZ
    dof rx rz
    limits (-45.0 90.0)
           (-70.0 20.0)
  end
  begin
     id 5 
     name ltoes
     direction 1.53565e-011 -4.21709e-011 1   
     length 0.993197   
     axis -90 7.62852e-016 20   XYZ
    dof rx
    limits (-90.0 20.0)
  end
  begin
     id 6 
     name rhipjoint
     direction -0.665722 -0.709315 0.231701   
     length 2.56642  
     axis 0 0 0  XYZ 
  end
  begin
     id 7 
     name rfemur
     direction -0.34202 -0.939693 0   
     length 7.32108   
     axis 0 0 -20   XYZ
    dof rx ry rz
    limits (-160.0 20.0)
           (-70.0 70.0)
           (-70.0 60.0)
  end
  begin
     id 8 
     name rtibia
     direction -0.34202 -0.939693 0   
     length 7.81254   
     axis 0 0 -20   XYZ
    dof rx
    limits (-10.0 170.0)
 end
 begin
     id 9 
     name rfoot
     direction -0.0832806 -0.228812 0.969902   
     length 2.08278  
     axis -90 -7.62852e-016 -20   XYZ
    dof rx rz
    limits (-45.0 90.0)
           (-20.0 70.0)
  end
  begin
     id 10 
     name rtoes
     direction -1.53589e-011 -4.22086e-011 1   
     length 1.04609   
     axis -90 -7.62852e-016 -20   XYZ
    dof rx
    limits (-90.0 20.0)
  end
  begin
     id 11 
     name lowerback
     direction -0.00506013 0.988403 -0.151766   
     length 2.01978   
     axis 0 0 0   XYZ
    dof rx ry rz
    limits (-20.0 45.0)
           (-30.0 30.0)
           (-30.0 30.0)
  end
  begin
     id 12 
     name upperback
     direction -0.00836389 0.99968 0.0238859   
     length 2.01276   
     axis 0 0 0   XYZ
    dof rx ry rz
    limits (-20.0 45.0)
           (-30.0 30.0)
           (-30.0 30.0)
  end
  begin
     id 13 
     name thorax
     direction -0.00684136 0.995386 0.0957043   
     length 2.07303   
     axis 0 0 0   XYZ
    dof rx ry rz
    limits (-20.0 45.0)
           (-30.0 30.0)
           (-30.0 30.0)
  end
  begin
     id 14 
     name lowerneck
     direction -0.0161045 0.999661 0.0204485   
     length 1.91243   
     axis 0 0 0   XYZ
    dof rx ry rz
    limits (-20.0 45.0)
           (-30.0 30.0)
           (-30.0 30.0)
  end
  begin
     id 15 
     name upperneck
     direction 0.0553583 0.990946 -0.122319   
     length 1.91574   
     axis 0 0 0   XYZ
    dof rx ry rz
    limits (-20.0 45.0)
           (-30.0 30.0)
           (-30.0 30.0)
  end
  begin
     id 16
     name head
     direction 0.0180273 0.998839 -0.0446756  
     length 1.92693  
     axis 0 0 0   XYZ
    dof rx ry rz
    limits (-20.0 45.0)
           (-30.0 30.0)
           (-30.0 30.0)
  end
  begin
     id 17 
     name lclavicle
     direction 0.945646 0.319323 -0.0615358  
     length 4.0076  
     axis 0 0 0   XYZ
    dof ry rz
    limits (-20.0 10.0)
           (0.0 20.0)
  end
  begin
     id 18 
     name lhumerus
     direction 1 -4.48967e-011 -2.79996e-027   
     length 5.64147   
     axis 180 -30 -90   XYZ
    dof rx ry rz
    limits (-60.0 90.0)
           (-90.0 90.0)
           (-90.0 90.0)
  end
  begin
     id 19
     name lradius
     direction 1 -4.48976e-011 -9.5122e-027   
     length 2.86444   
     axis 180 -30 -90   XYZ
    dof rx
    limits (-10.0 170.0)
  end
  begin
     id 20
     name lwrist
     direction 1 -4.48983e-011 -1.24047e-026   
     length 1.43222   
     axis 9.05591e-015 90 90   XYZ
    dof ry
    limits (-180.0 0.0)
 end
  begin
     id 21 
     name lhand
     direction 1 -4.4892e-011 -2.48094e-026   
     length 0.722123   
     axis 1.58305e-014 90 90   XYZ
    dof rx rz
    limits (-90.0 90.0)
           (-45.0 45.0)
  end
  begin
     id 22 
     name lfingers
     direction 1 -4.48895e-011 -4.96187e-026   
     length 0.582194   
     axis 3.1661e-014 90 90   XYZ
    dof rx
    limits (0.0 90.0)
  end
  begin
     id 23
     name lthumb
     direction 0.707107 -6.34961e-011 0.707107   
     length 0.835918   
     axis -90 45 2.85299e-015   XYZ
    dof rx rz
    limits (-45.0 45.0)
           (-45.0 45.0)
  end
  begin
     id 24 
     name rclavicle
     direction -0.932635 0.324218 -0.15835   
     length 3.65819  
     axis 0 0 0   XYZ 
    dof ry rz
    limits (-10.0 20.0)
           (-20.0 0.0)
  end
  begin
     id 25 
     name rhumerus
     direction -1 -4.48965e-011 -4.02296e-027  
     length 5.44729   
     axis 180 30 90   XYZ
    dof rx ry rz
    limits (-90.0 60.0)
           (-90.0 90.0)
           (-90.0 90.0)
  end
  begin
     id 26 
     name rradius
     direction -1 -4.48957e-011 -8.81087e-027   
     length 3.08821   
     axis 180 30 90   XYZ
    dof rx
    limits (-10.0 170.0)
  end
  begin
     id 27 
     name rwrist
     direction -1 -4.49015e-011 -1.24047e-026   
     length 1.5441   
     axis 9.05591e-015 -90 -90   XYZ
    dof ry
    limits (-180.0 0.0)
  end
  begin
     id 28
     name rhand
     direction -1 -4.4891e-011 -2.48094e-026   
     length 0.821049   
     axis 1.58305e-014 -90 -90   XYZ
    dof rx rz
    limits (-90.0 90.0)
           (-45.0 45.0)
  end
  begin
     id 29
     name rfingers
     direction -1 -4.48985e-011 -4.96187e-026   
     length 0.661951   
     axis 3.1661e-014 -90 -90   XYZ
    dof rx
    limits (0.0 90.0)
  end
  begin
     id 30
     name rthumb
     direction -0.707107 -6.34906e-011 0.707107   
     length 0.950433   
     axis -90 -45 -2.85299e-015   XYZ
    dof rx rz
    limits (-45.0 45.0)
           (-45.0 45.0)
  end
:hierarchy
  begin
    root lhipjoint rhipjoint lowerback
    lhipjoint lfemur
    lfemur ltibia
    ltibia lfoot
    lfoot ltoes
    rhipjoint rfemur
    rfemur rtibia
    rtibia rfoot
    rfoot rtoes
    lowerback upperback
    upperback thorax
    thorax lowerneck lclavicle rclavicle
    lowerneck upperneck
    upperneck head
    lclavicle lhumerus
    lhumerus lradius
    lradius lwrist
    lwrist lhand lthumb
    lhand lfingers
    rclavicle rhumerus
    rhumerus rradius
    rradius rwrist
    rwrist rhand rthumb
    rhand rfingers
  end

#!OML:ASF F:\VICON\USERDATA\INSTALL\rory3\rory3.ASF
:FULLY-SPECIFIED
:DEGREES
1823
root 2.8813 17.622 0.405888 -235.844 90.7986 -233.277
lowerback 3.03852 -0.740963 1.87225
upperback -5.43676 -0.826512 -0.617253
thorax -7.42122 -0.498665 -1.6221
lowerneck -9.17084 -5.48988 -4.49511
upperneck 18.1288 -7.69913 5.68662
head 7.47277 -3.40669 1.88729
rclavicle -5.01931e-015 1.0138e-014
rhumerus 66.0809 -21.3235 -26.9327
rradius 66.4703
rwrist -64.4282
rhand 9.32455 11.8582
rfingers 7.12502
rthumb 34.4854 -14.8165
lclavicle -5.01931e-015 1.0138e-014
lhumerus 79.9661 15.0711 30.9829
lradius 70.385
lwrist 122.356
lhand 1.41006 16.2257
lfingers 7.12502
lthumb 26.9403 44.3253
rfemur 0.0139058 2.67181 19.8059
rtibia 18.2607
rfoot -18.3109 -2.87851
rtoes -5.10805
lfemur 1.54632 0.00782013 -15.6494
ltibia 13.1886
lfoot -13.2854 1.3726
ltoes -3.26344
1824
root 2.87954 17.6224 0.405284 -234.721 90.71 -232.181
lowerback 3.02669 -0.714354 1.81932
upperback -5.39685 -0.798433 -0.656819
thorax -7.3698 -0.48279 -1.63673
lowerneck -9.15258 -5.46755 -4.4956
upperneck 18.0203 -7.67705 5.75351
head 7.43552 -3.39305 1.91212
rclavicle -4.39811e-015 -3.37934e-015
rhumerus 65.9309 -21.4742 -26.6161
rradius 66.4842
rwrist -64.4978
rhand 9.19289 12.0093
rfingers 7.12502
rthumb 34.3604 -14.6938
lclavicle -4.39811e-015 -3.37934e-015
lhumerus 79.977 15.2249 30.7503
lradius 70.4325
lwrist 122.348
lhand 1.74406 15.8908
lfingers 7.12502
lthumb 27.2598 43.9407
rfemur -0.0219989 2.59196 19.7023
rtibia 18.2787
rfoot -18.2896 -2.80754
rtoes -4.89492
lfemur 1.53737 -0.0188736 -15.7441
ltibia 13.1168
lfoot -13.2615 1.41186
ltoes -3.54656
1825
root 2.87798 17.624 0.404846 -231.5 90.587 -229.007
lowerback 3.00843 -0.713093 1.68928
upperback -5.38436 -0.807701 -0.684785
thorax -7.34405 -0.480678 -1.5924
lowerneck -9.06195 -5.46581 -4.45758
upperneck 17.938 -7.67078 5.70728
head 7.38871 -3.39509 1.89411
rclavicle 1.2598e-014 3.97569e-016
rhumerus 65.8338 -21.5237 -26.3747
rradius 66.4965
rwrist -64.4977
rhand 8.96281 12.3185
rfingers 7.12502
rthumb 34.1419 -14.4336
lclavicle 1.2598e-014 3.97569e-016
lhumerus 79.8928 15.3649 30.4431
lradius 70.487
lwrist 122.241
lhand 1.97183 15.6595
lfingers 7.12502
lthumb 27.4776 43.675
rfemur -0.0936077 2.53021 19.558
rtibia 18.3254
rfoot -18.3016 -2.75665
rtoes -5.04821
lfemur 1.52702 0.147827 -15.858
ltibia 13.0026
lfoot -13.1019 1.2513
ltoes -3.4622
1826
root 2.87507 17.6248 0.404483 -231.291 90.5376 -228.835
lowerback 3.04873 -0.708357 1.66137
upperback -5.3986 -0.804069 -0.712874
thorax -7.38265 -0.478544 -1.60617
lowerneck -8.93588 -5.51273 -4.39057
upperneck 17.9244 -7.73079 5.61625
head 7.35875 -3.42945 1.85108
rclavicle -7.52897e-015 -4.37326e-015
rhumerus 65.7197 -21.5651 -26.1912
rradius 66.5259
rwrist -64.5253
rhand 8.99887 12.2962
rfingers 7.12502
rthumb 34.1762 -14.4483
lclavicle -7.52897e-015 -4.37326e-015
lhumerus 79.81 15.4791 30.0565
lradius 70.4909
lwrist 122.1
lhand 2.104 15.5517
lfingers 7.12502
lthumb 27.604 43.5471
rfemur -0.163455 2.45292 19.5052
rtibia 18.3594
rfoot -18.2874 -2.79372
rtoes -5.69704
lfemur 1.50108 0.374271 -15.8686
ltibia 12.9192
lfoot -12.9481 1.01012
ltoes -3.24393
1827
root 2.8715 17.6272 0.404553 -235.409 90.5067 -232.972
lowerback 3.13005 -0.698393 1.67986
upperback -5.40165 -0.790025 -0.73487
thorax -7.43348 -0.473996 -1.64026
lowerneck -8.8984 -5.54224 -4.40354
upperneck 17.9199 -7.77604 5.65106
head 7.35505 -3.44928 1.86104
rclavicle 5.31749e-015 -4.37326e-015
rhumerus 65.6034 -21.656 -26.0183
rradius 66.5203
rwrist -64.5553
rhand 9.19478 12.0872
rfingers 7.12502
rthumb 34.3622 -14.6154
lclavicle 5.31749e-015 -4.37326e-015
lhumerus 79.8195 15.5702 29.7677
lradius 70.4225
lwrist 121.932
lhand 2.25389 15.5692
lfingers 7.12502
lthumb 27.7474 43.5415
rfemur -0.196816 2.42293 19.5034
rtibia 18.3736
rfoot -18.2449 -2.88037
rtoes -5.83126
lfemur 1.48027 0.503275 -15.8472
ltibia 12.8602
lfoot -12.8456 0.887772
ltoes -3.48415
1828
root 2.86881 17.6277 0.403558 -241.829 90.4652 -239.412
lowerback 3.16608 -0.709254 1.70146
upperback -5.38733 -0.804633 -0.75601
thorax -7.44054 -0.483308 -1.67285
lowerneck -8.86876 -5.52387 -4.36606
upperneck 17.8461 -7.76006 5.68196
head 7.32458 -3.43855 1.8676
rclavicle -1.13804e-014 -4.96962e-015
rhumerus 65.5357 -21.73 -25.8875
rradius 66.5342
rwrist -64.5403
rhand 9.21161 11.983
rfingers 7.12502
rthumb 34.3782 -14.716
lclavicle -1.13804e-014 -4.96962e-015
lhumerus 79.7905 15.7067 29.4551
lradius 70.3371
lwrist 121.903
lhand 2.31606 15.5888
lfingers 7.12502
lthumb 27.8068 43.5515
rfemur -0.203433 2.3541 19.4892
rtibia 18.3592
rfoot -18.1983 -2.94527
rtoes -6.09773
lfemur 1.4454 0.520857 -15.849
ltibia 12.8445
lfoot -12.7832 0.814338
ltoes -3.53646
1829
root 2.86687 17.6282 0.405044 -243.785 90.4566 -241.398
lowerback 3.18082 -0.690972 1.70408
upperback -5.37578 -0.781584 -0.778346
thorax -7.43615 -0.472864 -1.69987
lowerneck -8.797 -5.52552 -4.30663
upperneck 17.7408 -7.77254 5.70126
head 7.27659 -3.4424 1.86525
rclavicle 4.62174e-015 3.77691e-015
rhumerus 65.4596 -21.7701 -25.8191
rradius 66.536
rwrist -64.526
rhand 9.22719 11.9069
rfingers 7.12502
rthumb 34.393 -14.7888
lclavicle 4.62174e-015 3.77691e-015
lhumerus 79.7908 15.8172 29.1938
lradius 70.2342
lwrist 121.865
lhand 2.41408 15.6284
lfingers 7.12502
lthumb 27.9005 43.576
rfemur -0.228587 2.37343 19.4977
rtibia 18.3325
rfoot -18.2527 -2.90996
rtoes -5.79686
lfemur 1.40353 0.519025 -15.8435
ltibia 12.8337
lfoot -12.7703 0.784605
ltoes -3.48376
1830
root 2.86472 17.6283 0.407157 -248.862 90.4805 -246.484
lowerback 3.19434 -0.663582 1.72007
upperback -5.33382 -0.744656 -0.771389
thorax -7.39746 -0.455259 -1.70501
lowerneck -8.79793 -5.53881 -4.28269
upperneck 17.6579 -7.79283 5.70685
head 7.25021 -3.45217 1.86138
rclavicle 2.83268e-015 7.95139e-015
rhumerus 65.3979 -21.8541 -25.7132
rradius 66.526
rwrist -64.5749
rhand 9.30518 11.7855
rfingers 7.12502
rthumb 34.467 -14.8933
lclavicle 2.83268e-015 7.95139e-015
lhumerus 79.8661 15.9122 29.0642
lradius 70.1218
lwrist 121.764
lhand 2.60144 15.5999
lfingers 7.12502
lthumb 28.0796 43.5182
rfemur -0.23446 2.4197 19.5544
rtibia 18.3162
rfoot -18.3292 -2.89408
rtoes -5.46267
lfemur 1.3883 0.516522 -15.7907
ltibia 12.8172
lfoot -12.7576 0.75758
ltoes -3.45066
1831
root 2.86243 17.6296 0.407435 -254.23 90.4639 -251.852
lowerback 3.22213 -0.655344 1.71938
upperback -5.28189 -0.736033 -0.784598
thorax -7.35768 -0.451349 -1.71909
lowerneck -8.86667 -5.54848 -4.20518
upperneck 17.6295 -7.80865 5.6641
head 7.24916 -3.45812 1.83161
rclavicle -2.33572e-015 -1.98785e-016
rhumerus 65.349 -21.9491 -25.6382
rradius 66.5333
rwrist -64.6677
rhand 9.37191 11.7556
rfingers 7.12502
rthumb 34.5304 -14.9089
lclavicle -2.33572e-015 -1.98785e-016
lhumerus 79.9691 16.0375 28.9321
lradius 69.9763
lwrist 121.758
lhand 2.63389 15.5739
lfingers 7.12502
lthumb 28.1107 43.4871
rfemur -0.218269 2.43573 19.5611
rtibia 18.276
rfoot -18.3189 -3.00731
rtoes -5.48361
lfemur 1.35547 0.484894 -15.7923
ltibia 12.8528
lfoot -12.7932 0.753501
ltoes -3.624
1832
root 2.85951 17.63 0.408789 -257.711 90.4566 -255.363
lowerback 3.24012 -0.65661 1.69485
upperback -5.25831 -0.739679 -0.778519
thorax -7.34244 -0.451604 -1.69846
lowerneck -8.87474 -5.54794 -4.144
upperneck 17.5908 -7.8034 5.5938
head 7.23239 -3.4588 1.79935
rclavicle -5.91384e-015 -1.59028e-015
rhumerus 65.3135 -21.9791 -25.5666
rradius 66.5468
rwrist -64.6825
rhand 9.25471 11.8724
rfingers 7.12502
rthumb 34.4191 -14.8173
lclavicle -5.91384e-015 -1.59028e-015
lhumerus 80.004 16.1679 28.7842
lradius 69.8315
lwrist 121.726
lhand 2.58814 15.5593
lfingers 7.12502
lthumb 28.0669 43.4797
rfemur -0.223562 2.46383 19.5762
rtibia 18.2154
rfoot -18.2803 -3.15018
rtoes -5.35977
lfemur 1.26335 0.472692 -15.7878
ltibia 12.9281
lfoot -12.8106 0.766743
ltoes -3.86899
1833
root 2.8554 17.6297 0.409471 -265.987 90.5577 -263.674
lowerback 3.25233 -0.666877 1.79262
upperback -5.24189 -0.74485 -0.739959
thorax -7.33333 -0.458433 -1.7123
lowerneck -8.84514 -5.54836 -4.09972
upperneck 17.522 -7.79384 5.50905
head 7.19901 -3.46125 1.76675
rclavicle -4.77083e-015 -4.77083e-015
rhumerus 65.3469 -22.0083 -25.5815
rradius 66.5379
rwrist -64.6846
rhand 9.15196 11.9436
rfingers 7.12502
rthumb 34.3216 -14.7682
lclavicle -4.77083e-015 -4.77083e-015
lhumerus 80.0575 16.2779 28.716
lradius 69.744
lwrist 121.686
lhand 2.56398 15.5491
lfingers 7.12502
lthumb 28.0438 43.4732
rfemur -0.247299 2.45478 19.707
rtibia 18.1702
rfoot -18.2855 -3.18837
rtoes -5.44596
lfemur 1.16555 0.474467 -15.6504
ltibia 12.983
lfoot -12.7881 0.657856
ltoes -3.45899
